<svg viewBox="0 0 192 192" fill="none" xmlns="http://www.w3.org/2000/svg">
  <defs>
    <linearGradient id="gradient1" x1="0" y1="0" x2="192" y2="192" gradientUnits="userSpaceOnUse">
      <stop stop-color="#8B5CF6"/>
      <stop offset="1" stop-color="#06B6D4"/>
    </linearGradient>
    <filter id="glow" x="-10%" y="-10%" width="120%" height="120%">
      <feGaussianBlur stdDeviation="4" result="coloredBlur"/>
      <feMerge> 
        <feMergeNode in="coloredBlur"/>
        <feMergeNode in="SourceGraphic"/>
      </feMerge>
    </filter>
  </defs>
  
  <!-- Background -->
  <rect width="192" height="192" rx="48" fill="url(#gradient1)" filter="url(#glow)"/>
  
  <!-- Brain Shape -->
  <path d="M48 96C48 80.536 60.536 68 76 68H116C131.464 68 144 80.536 144 96C144 111.464 131.464 124 116 124H76C60.536 124 48 111.464 48 96Z" fill="white" fill-opacity="0.95"/>
  
  <!-- Neural Network -->
  <circle cx="76" cy="96" r="8" fill="url(#gradient1)"/>
  <circle cx="116" cy="96" r="8" fill="url(#gradient1)"/>
  <circle cx="96" cy="82" r="6" fill="url(#gradient1)" opacity="0.8"/>
  <circle cx="96" cy="110" r="6" fill="url(#gradient1)" opacity="0.8"/>
  
  <!-- Connections -->
  <path d="M84 96L108 96M90 82L102 82M90 110L102 110" stroke="url(#gradient1)" stroke-width="3" opacity="0.6"/>
  <path d="M82 89L90 82M82 103L90 110M110 89L102 82M110 103L102 110" stroke="url(#gradient1)" stroke-width="2" opacity="0.4"/>
  
  <!-- Circuit Pattern -->
  <path d="M60 72L72 72M60 120L72 120M120 72L132 72M120 120L132 120" stroke="white" stroke-width="2" opacity="0.6"/>
  <circle cx="72" cy="72" r="2" fill="white" opacity="0.8"/>
  <circle cx="72" cy="120" r="2" fill="white" opacity="0.8"/>
  <circle cx="120" cy="72" r="2" fill="white" opacity="0.8"/>
  <circle cx="120" cy="120" r="2" fill="white" opacity="0.8"/>
</svg>